# xmcd
#
# Track frame offsets: 
#        150
#        22514
#        40779
#        59615
#        75678
#        97928
#        116012
#        130779
#        146216
#        165038
#        182857
#        201150
#        221274
#        238911
#        256048
#        276727
#
# Disc length: 3928 seconds
#
# Revision: 0
# Processed by: cddbd v1.5.2PL0 Copyright (c) Steve Scherf et al.
# Submitted via: ExactAudioCopy v0.95b4
#
DISCID=db0f5610
DTITLE=Cristian Castro - Oro
DYEAR=2002
DGENRE=Latin
TTITLE0=Amor
TTITLE1=No podrás
TTITLE2=Mañana
TTITLE3=El deseo de oir tu voz
TTITLE4=Nunca voy a olvidarte
TTITLE5=No puedo arrancarte de mi
TTITLE6=Solo dame una noche
TTITLE7=Amarte a ti
TTITLE8=Vuelveme a querer
TTITLE9=Es mejor asi
TTITLE10=Lo voy a intentar
TTITLE11=Mi querido amor
TTITLE12=Con tu amor
TTITLE13=Por amor a ti
TTITLE14=Un segundo
TTITLE15=Agua nueva
EXTD=
EXTT0=
EXTT1=
EXTT2=
EXTT3=
EXTT4=
EXTT5=
EXTT6=
EXTT7=
EXTT8=
EXTT9=
EXTT10=
EXTT11=
EXTT12=
EXTT13=
EXTT14=
EXTT15=
PLAYORDER=
